<svg width="515" height="212" viewBox="0 0 515 212" fill="none" xmlns="http://www.w3.org/2000/svg">
<path d="M141.828 125.784H161.988V177.624H141.828V207H85.3801V177.624H0.708125V125.784L56.2921 5.39999H121.668L65.2201 125.784H85.3801V97.56H141.828V125.784ZM319.801 183.096C305.017 202.104 284.089 211.608 257.017 211.608C229.945 211.608 209.017 202.104 194.233 183.096C179.449 163.704 172.057 138.072 172.057 106.2C172.057 74.328 179.449 48.792 194.233 29.592C208.825 10.392 229.753 0.791994 257.017 0.791994C284.281 0.791994 305.209 10.392 319.801 29.592C334.585 48.792 341.977 74.328 341.977 106.2C341.977 138.072 334.585 163.704 319.801 183.096ZM257.017 56.664C238.777 56.664 229.657 73.176 229.657 106.2C229.657 139.224 238.777 155.736 257.017 155.736C275.257 155.736 284.377 139.224 284.377 106.2C284.377 73.176 275.257 56.664 257.017 56.664ZM494.516 125.784H514.676V177.624H494.516V207H438.068V177.624H353.396V125.784L408.98 5.39999H474.356L417.908 125.784H438.068V97.56H494.516V125.784Z" fill="#505050"/>
</svg>
