<svg width="35" height="35" viewBox="0 0 35 35" fill="none" xmlns="http://www.w3.org/2000/svg">
<path fill-rule="evenodd" clip-rule="evenodd" d="M2.13698 0.0923869C1.0515 0.356337 0.232219 1.25209 0.0375033 2.38764C-0.0650868 2.98606 0.0539861 5.44595 0.258893 6.96208C1.10157 13.1951 3.50395 18.642 7.57999 23.5609C8.31023 24.4422 10.5572 26.6894 11.4385 27.4197C16.3571 31.4961 21.8035 33.8986 28.036 34.7414C29.5633 34.9479 32.0114 35.0654 32.6179 34.9615C33.7773 34.7626 34.6838 33.9026 34.9231 32.7743C34.9742 32.5334 35 31.2593 35 28.9754C35 25.3134 34.9856 25.1264 34.6535 24.4754C34.4654 24.1067 34.0147 23.6247 33.668 23.4215C33.1465 23.1158 32.8133 23.0412 31.6829 22.9766C29.5575 22.8553 28.1964 22.6375 26.4869 22.1453C25.6152 21.8943 25.4766 21.8726 24.9067 21.8975C24.3558 21.9216 24.2286 21.9527 23.8295 22.1615C23.5806 22.2917 22.4538 23.0984 21.3256 23.9542C20.1973 24.8101 19.2521 25.5103 19.2249 25.5103C19.1346 25.5103 17.8097 24.7383 17.0125 24.2212C14.0546 22.3025 11.8026 19.887 9.96569 16.6629C9.55 15.9333 9.47798 15.7631 9.54179 15.6609C9.58406 15.5932 10.3028 14.6344 11.139 13.5303C11.9752 12.4262 12.7298 11.3986 12.816 11.2467C12.9022 11.0949 13.0228 10.7748 13.0842 10.5353C13.225 9.98578 13.1839 9.62552 12.842 8.41062C12.3678 6.72521 12.1338 5.24089 12.055 3.41752C12.0094 2.36179 11.9033 1.84893 11.636 1.39285C11.2543 0.741422 10.498 0.20545 9.76434 0.0662586C9.22308 -0.0364078 2.57285 -0.013631 2.13698 0.0923869Z" fill="white"/>
</svg>
