<svg width="49" height="35" viewBox="0 0 49 35" fill="none" xmlns="http://www.w3.org/2000/svg">
<path fill-rule="evenodd" clip-rule="evenodd" d="M3.30755 0.140198C2.50195 0.344992 1.8989 0.694707 1.29144 1.30948C0.66581 1.94272 0.287598 2.64001 0.113369 3.48164C-0.0389487 4.21722 -0.0372266 30.7901 0.115187 31.5134C0.465653 33.177 1.80571 34.5392 3.43184 34.8851C4.15353 35.0387 44.8506 35.0381 45.5683 34.8845C47.1919 34.5372 48.5479 33.16 48.8872 31.5134C49.0391 30.7767 49.0369 4.20303 48.8849 3.48164C48.5323 1.80752 47.2071 0.460559 45.5683 0.110455C44.7947 -0.0548766 3.96179 -0.0261063 3.30755 0.140198ZM34.7852 12.3523C29.6809 17.5412 25.3884 21.8494 25.2463 21.9262C25.1042 22.003 24.7684 22.0658 24.5001 22.0658C24.2317 22.0658 23.896 22.003 23.7538 21.9262C23.6117 21.8494 19.3192 17.5412 14.2149 12.3523L4.93445 2.91799H24.5001H44.0657L34.7852 12.3523ZM9.07201 23.7909L2.87701 30.0844V17.4975V4.91072L9.07201 11.2041L15.267 17.4975L9.07201 23.7909ZM46.1231 17.5217V30.0844L39.9282 23.791L33.7333 17.4977L39.904 11.2284C43.2979 7.78027 46.0856 4.95913 46.0989 4.95913C46.1122 4.95913 46.1231 10.6123 46.1231 17.5217ZM19.5175 21.9034C21.5745 23.9712 21.8402 24.2045 22.5337 24.552L23.2941 24.9331H24.4951C25.6866 24.9331 25.702 24.9302 26.4514 24.5667C27.1512 24.2273 27.3751 24.0307 29.4922 21.897L31.7776 19.5935L37.9217 25.8353L44.0659 32.0771H24.5002H4.93464L11.0574 25.8565C14.425 22.4352 17.1985 19.6359 17.2209 19.6359C17.2433 19.6359 18.2767 20.6563 19.5175 21.9034Z" fill="white"/>
</svg>
