<svg width="41" height="59" viewBox="0 0 41 59" fill="none" xmlns="http://www.w3.org/2000/svg">
<path fill-rule="evenodd" clip-rule="evenodd" d="M18.9847 0.0258166C13.7495 0.559398 9.54159 2.52344 6.03156 6.07173C-0.153448 12.3241 -1.74971 21.7236 2.02486 29.6647C2.81392 31.3247 19.1106 57.9749 19.6753 58.5288C20.3876 59.2273 21.5068 59.1384 22.1295 58.3339C22.5916 57.7368 38.2779 31.2156 38.8497 30.0648C39.788 28.1758 40.4022 26.289 40.8013 24.0693C41.0413 22.7342 41.0704 19.1718 40.8527 17.7817C40.1333 13.1895 38.1783 9.26514 35.0193 6.07173C31.8761 2.89423 27.8931 0.861549 23.5004 0.192986C22.5919 0.0547742 19.7376 -0.0509037 18.9847 0.0258166ZM22.9184 3.59579C26.4765 4.09753 30.0514 5.90756 32.6104 8.50301C35.0171 10.9442 36.5809 13.8932 37.3165 17.3779C37.6879 19.1371 37.6892 22.3336 37.319 24.0693C36.9775 25.6719 36.4823 27.1134 35.8133 28.4533C35.5123 29.0561 32.0074 35.0434 28.0247 41.7583L20.7834 53.9675L13.2438 41.6846C9.09707 34.9291 5.47565 28.9419 5.19639 28.3796C4.07637 26.125 3.54546 24.0134 3.44526 21.4158C3.1378 13.4425 8.1617 6.37076 15.7347 4.11668C18.0072 3.44028 20.5219 3.25799 22.9184 3.59579ZM18.6691 10.5152C14.8058 11.2557 11.6284 14.2464 10.5809 18.1278C10.2261 19.4429 10.2243 21.9915 10.5772 23.3194C11.3461 26.2123 13.3578 28.6975 15.9906 30.0077C17.6126 30.8149 18.551 31.0264 20.5254 31.0301C22.4943 31.0336 23.4158 30.8261 25.0586 30.0086C27.7007 28.6938 29.7022 26.2213 30.4737 23.3194C30.8266 21.9915 30.8248 19.4429 30.4699 18.1278C29.4986 14.5285 26.6059 11.6085 23.0932 10.6815C21.8849 10.3626 19.8616 10.2866 18.6691 10.5152ZM21.9179 13.9289C23.0093 14.1591 24.2941 14.8526 25.1562 15.6769C26.0334 16.5157 26.5713 17.3365 27.0085 18.5037C27.2595 19.1735 27.301 19.4737 27.3079 20.6659C27.3163 22.1378 27.1973 22.6825 26.6019 23.8962C25.7722 25.5873 23.9613 27.0276 22.1102 27.4686C17.855 28.4826 13.6885 25.1662 13.6796 20.7581C13.6774 19.6292 13.8492 18.8809 14.373 17.7406C15.196 15.9485 17.033 14.4398 18.9709 13.9645C19.7161 13.7816 21.1381 13.7645 21.9179 13.9289Z" fill="white"/>
</svg>
