<svg width="179" height="19" viewBox="0 0 179 19" fill="none" xmlns="http://www.w3.org/2000/svg">
<path d="M14.0399 0.365385H18.1999V18.6346H14.0399V8.01236L9.33396 15.7637H8.86596L4.15998 8.01236V18.6346H0V0.365385H4.15998L9.09996 8.48214L14.0399 0.365385Z" />
<path d="M37.4479 18.6346H32.898L31.988 15.7637H25.228L24.318 18.6346H19.768L25.956 0.365385H31.26L37.4479 18.6346ZM28.608 5.14148L26.476 11.8489H30.74L28.608 5.14148Z" />
<path d="M44.9889 19C43.1689 19 41.6349 18.6085 40.3869 17.8256C39.139 17.0252 38.2463 15.9116 37.709 14.4849L41.2969 12.397C42.0249 14.0847 43.2989 14.9286 45.1189 14.9286C46.7656 14.9286 47.5889 14.4327 47.5889 13.4409C47.5889 12.8842 47.3202 12.4666 46.7829 12.1882C46.2282 11.8576 45.2403 11.5009 43.8189 11.1181C42.3629 10.7179 41.1323 10.1438 40.1269 9.39561C39.0176 8.49084 38.463 7.212 38.463 5.55907C38.463 3.87134 39.061 2.52289 40.257 1.51374C41.4703 0.504579 42.9089 0 44.5729 0C46.0636 0 47.3809 0.356685 48.5249 1.07006C49.6689 1.76603 50.5702 2.78388 51.2289 4.12363L47.7189 6.18544C47.0602 4.7761 46.0116 4.07143 44.5729 4.07143C43.9663 4.07143 43.4896 4.20192 43.1429 4.46291C42.7963 4.7239 42.6229 5.05449 42.6229 5.45467C42.6229 5.88965 42.8309 6.28114 43.2469 6.62912C43.6976 6.97711 44.5816 7.34249 45.8989 7.72528L47.5889 8.27335C48.0222 8.41255 48.5249 8.64744 49.0969 8.97802C49.7209 9.29121 50.1889 9.6305 50.5009 9.99588C51.3329 10.9006 51.7489 12.0316 51.7489 13.3887C51.7489 15.1113 51.1249 16.4858 49.8769 17.5124C48.6289 18.5041 46.9996 19 44.9889 19Z" />
<path d="M51.8677 0.365385H65.3876V4.38462H60.7077V18.6346H56.5477V4.38462H51.8677V0.365385Z" />
<path d="M71.3686 11.3791V14.6154H78.6486V18.6346H67.2087V0.365385H78.5186V4.38462H71.3686V7.41209H77.8686V11.3791H71.3686Z" />
<path d="M95.0356 18.6346H90.5636L87.1317 12.6319H85.1557V18.6346H80.9957V0.365385H88.2757C90.009 0.365385 91.4823 0.974359 92.6956 2.19231C93.909 3.41026 94.5156 4.8892 94.5156 6.62912C94.5156 7.72528 94.2036 8.75183 93.5796 9.70879C92.973 10.6658 92.167 11.4052 91.1617 11.9272L95.0356 18.6346ZM88.2757 4.28022H85.1557V8.97802H88.2757C88.8477 8.97802 89.333 8.75183 89.7317 8.29945C90.1477 7.84707 90.3557 7.29029 90.3557 6.62912C90.3557 5.96795 90.1477 5.41117 89.7317 4.95879C89.333 4.50641 88.8477 4.28022 88.2757 4.28022Z" />
<path d="M105.188 18.6346H100.456L95.4378 0.365385H99.8058L102.952 13.1538L106.462 0.365385H109.842L113.352 13.1538L116.498 0.365385H120.866L115.848 18.6346H111.116L108.152 7.85577L105.188 18.6346Z" />
<path d="M137.292 16.2596C135.454 18.0865 133.218 19 130.584 19C127.949 19 125.713 18.0865 123.876 16.2596C122.038 14.4327 121.12 12.1795 121.12 9.5C121.12 6.82051 122.038 4.56731 123.876 2.74039C125.713 0.913462 127.949 0 130.584 0C133.218 0 135.454 0.913462 137.292 2.74039C139.129 4.56731 140.048 6.82051 140.048 9.5C140.048 12.1795 139.129 14.4327 137.292 16.2596ZM125.28 9.5C125.28 11.1007 125.782 12.4057 126.788 13.4148C127.793 14.424 129.058 14.9286 130.584 14.9286C132.092 14.9286 133.348 14.424 134.354 13.4148C135.376 12.3883 135.888 11.0833 135.888 9.5C135.888 7.91667 135.376 6.61172 134.354 5.58517C133.348 4.57601 132.092 4.07143 130.584 4.07143C129.058 4.07143 127.793 4.57601 126.788 5.58517C125.782 6.59432 125.28 7.89927 125.28 9.5Z" />
<path d="M157.782 16.2596C155.945 18.0865 153.709 19 151.074 19C148.439 19 146.203 18.0865 144.366 16.2596C142.529 14.4327 141.61 12.1795 141.61 9.5C141.61 6.82051 142.529 4.56731 144.366 2.74039C146.203 0.913462 148.439 0 151.074 0C153.709 0 155.945 0.913462 157.782 2.74039C159.619 4.56731 160.538 6.82051 160.538 9.5C160.538 12.1795 159.619 14.4327 157.782 16.2596ZM145.77 9.5C145.77 11.1007 146.273 12.4057 147.278 13.4148C148.283 14.424 149.549 14.9286 151.074 14.9286C152.582 14.9286 153.839 14.424 154.844 13.4148C155.867 12.3883 156.378 11.0833 156.378 9.5C156.378 7.91667 155.867 6.61172 154.844 5.58517C153.839 4.57601 152.582 4.07143 151.074 4.07143C149.549 4.07143 148.283 4.57601 147.278 5.58517C146.273 6.59432 145.77 7.89927 145.77 9.5Z" />
<path d="M162.88 0.365385H170.16C172.656 0.365385 174.753 1.24405 176.452 3.00137C178.151 4.7587 179 6.92491 179 9.5C179 12.0925 178.151 14.2674 176.452 16.0247C174.771 17.7647 172.673 18.6346 170.16 18.6346H162.88V0.365385ZM167.04 14.6154H170.16C171.599 14.6154 172.76 14.1543 173.644 13.2321C174.545 12.31 174.996 11.0659 174.996 9.5C174.996 7.93407 174.545 6.69872 173.644 5.79396C172.76 4.8544 171.599 4.38462 170.16 4.38462H167.04V14.6154Z" />
</svg>
