<svg width="15" height="11" viewBox="0 0 15 11" fill="none" xmlns="http://www.w3.org/2000/svg">
<path fill-rule="evenodd" clip-rule="evenodd" d="M1.06807 0.0480482C0.324817 0.224705 -0.142947 0.96895 0.0446947 1.67632C0.101984 1.89231 0.209508 2.08526 0.356013 2.23495C0.486802 2.36861 6.69707 6.44567 6.92433 6.54709C7.27078 6.70168 7.68362 6.69604 8.03721 6.53184C8.31462 6.40301 14.3985 2.40514 14.5531 2.25012C15.2792 1.52162 14.8829 0.286712 13.846 0.0467314C13.5731 -0.0164198 1.33405 -0.0151603 1.06807 0.0480482ZM0 6.4256C0 8.74407 0.00979611 9.80791 0.0321289 9.91334C0.138953 10.418 0.554996 10.8295 1.08145 10.9513C1.35609 11.0149 13.5223 11.0168 13.8274 10.9534C14.358 10.8429 14.7869 10.4253 14.8953 9.91334C14.9323 9.73869 14.9423 3.08311 14.9055 3.09914C14.8935 3.10438 13.4836 4.02614 11.7724 5.14749C10.0612 6.26884 8.56728 7.23268 8.45264 7.28936C8.13036 7.44873 7.85712 7.50956 7.4637 7.50956C7.07028 7.50956 6.79704 7.44873 6.47476 7.28936C6.36012 7.23268 4.86625 6.26884 3.15502 5.14749C1.44382 4.02614 0.0339074 3.10438 0.0218663 3.09914C0.00982526 3.09388 0 4.59081 0 6.4256Z"/>
</svg>
