<svg width="16" height="4" viewBox="0 0 16 4" fill="none" xmlns="http://www.w3.org/2000/svg">
<path d="M1.8 0C2.296 0 2.72 0.176 3.072 0.528C3.424 0.88 3.6 1.304 3.6 1.8C3.6 2.296 3.424 2.72 3.072 3.072C2.72 3.424 2.296 3.6 1.8 3.6C1.304 3.6 0.88 3.424 0.528 3.072C0.176 2.72 0 2.296 0 1.8C0 1.304 0.168 0.88 0.504 0.528C0.856 0.176 1.288 0 1.8 0Z" />
<path d="M7.91719 0C8.41319 0 8.83719 0.176 9.18919 0.528C9.54119 0.88 9.71719 1.304 9.71719 1.8C9.71719 2.296 9.54119 2.72 9.18919 3.072C8.83719 3.424 8.41319 3.6 7.91719 3.6C7.42119 3.6 6.99719 3.424 6.64519 3.072C6.29319 2.72 6.11719 2.296 6.11719 1.8C6.11719 1.304 6.28519 0.88 6.62119 0.528C6.97319 0.176 7.40519 0 7.91719 0Z" />
<path d="M14.0344 0C14.5304 0 14.9544 0.176 15.3064 0.528C15.6584 0.88 15.8344 1.304 15.8344 1.8C15.8344 2.296 15.6584 2.72 15.3064 3.072C14.9544 3.424 14.5304 3.6 14.0344 3.6C13.5384 3.6 13.1144 3.424 12.7624 3.072C12.4104 2.72 12.2344 2.296 12.2344 1.8C12.2344 1.304 12.4024 0.88 12.7384 0.528C13.0904 0.176 13.5224 0 14.0344 0Z" />
</svg>
