<svg width="32" height="57" viewBox="0 0 32 57" fill="none" xmlns="http://www.w3.org/2000/svg">
<path fill-rule="evenodd" clip-rule="evenodd" d="M11.2941 0.104233C9.89025 0.377015 8.38158 1.55197 7.72965 2.88021C7.2833 3.78963 7.14874 4.50062 7.14874 5.95014V7.09444L6.62677 6.93815C6.02032 6.75656 4.73203 6.73772 4.0243 6.90014C2.10088 7.34125 0.45261 9.07359 0.0878223 11.0373C0.0101817 11.4549 -0.0158101 16.8763 0.00917384 27.4202C0.0461455 42.9615 0.0498421 43.1935 0.282652 44.2459C1.7241 50.7642 6.66453 55.5843 13.1426 56.7927C14.6168 57.0678 17.405 57.0693 18.8854 56.796C25.2937 55.6127 30.2021 50.8202 31.7022 44.2822L31.9554 43.1787L31.9915 27.9781C32.0155 17.8666 31.9888 12.5669 31.9119 12.1485C31.6511 10.7282 30.5013 9.15563 29.2697 8.53516C28.0202 7.90554 26.6528 7.73342 25.444 8.05358L24.8614 8.20797L24.7337 7.59586C24.3949 5.97188 23.3717 4.65847 21.8814 3.93443C20.61 3.31675 19.034 3.21196 17.8355 3.66533C17.6712 3.72742 17.5285 3.76432 17.5181 3.74727C17.5077 3.73021 17.3292 3.36513 17.1214 2.93594C16.0795 0.784236 13.7129 -0.365749 11.2941 0.104233ZM13.0513 3.44472C13.4805 3.60603 13.9782 4.08704 14.1647 4.52091C14.2906 4.81353 14.319 6.25057 14.3189 12.3242L14.3188 19.7688H13.0585C11.924 19.7688 11.7339 19.7988 11.154 20.0692L10.5098 20.3696V12.6355C10.5098 7.44191 10.5489 4.79815 10.629 4.58746C10.9916 3.63256 12.1267 3.09703 13.0513 3.44472ZM20.4993 6.95855C20.6677 7.04517 20.9467 7.30034 21.1193 7.52552L21.4333 7.93497L21.4632 17.3912L21.493 26.8475H23.1717H24.8503V19.7924V12.7374L25.1024 12.2404C25.7833 10.8981 27.7662 10.9242 28.4279 12.2842L28.6657 12.7732L28.6282 27.8645C28.5942 41.5064 28.5727 43.0277 28.4037 43.7041C27.9748 45.42 27.3099 46.9386 26.394 48.2942C25.7946 49.1812 24.0901 50.8724 23.1848 51.4781C18.7511 54.4453 13.239 54.4379 8.78581 51.459C7.89434 50.8626 6.19465 49.1666 5.58585 48.2658C4.98512 47.3772 4.32545 46.0674 4.01814 45.1533C3.40833 43.3393 3.41763 43.4772 3.37427 35.7099L3.33371 28.4639L6.55764 26.5708C12.8608 22.8697 12.5106 23.0573 13.1137 23.0573C15.0588 23.0573 15.7568 25.4762 14.1175 26.5357C13.8894 26.6832 12.3038 27.6235 10.5938 28.6255L7.48485 30.4471V32.0947V33.7423L9.69755 33.7785C11.8854 33.8143 11.9178 33.8185 12.581 34.1425C13.8635 34.769 14.8154 36.0498 14.9769 37.3661L15.0472 37.9394H16.7227H18.3981L18.3663 37.3437C18.319 36.4561 18.0684 35.5975 17.5478 34.5394C16.9182 33.2598 15.5401 31.8618 14.3533 31.2988C13.9101 31.0885 13.5445 30.8854 13.541 30.8476C13.5376 30.8097 14.123 30.4335 14.8419 30.0115C16.3362 29.1343 17.0544 28.5358 17.568 27.7394C18.5005 26.2935 18.6382 24.1546 17.8925 22.7001C17.6906 22.3064 17.6801 21.9369 17.6801 15.2549C17.6801 7.67634 17.6712 7.79629 18.2712 7.24616C18.8765 6.69112 19.7583 6.5773 20.4993 6.95855ZM6.35688 10.4552C6.56033 10.5992 6.82059 10.9229 6.93532 11.1741C7.12925 11.5992 7.14404 12.0048 7.14628 16.9861L7.14874 22.3413L5.30901 23.4239C4.29711 24.0194 3.44003 24.5065 3.40441 24.5065C3.36867 24.5065 3.34066 21.6095 3.342 18.0688C3.34436 12.0317 3.35746 11.6026 3.55297 11.1741C3.74343 10.7569 4.14115 10.377 4.57193 10.2006C4.95274 10.0448 5.98548 10.192 6.35688 10.4552Z" fill="white"/>
</svg>
