<svg width="45" height="60" viewBox="0 0 45 60" fill="none" xmlns="http://www.w3.org/2000/svg">
<path fill-rule="evenodd" clip-rule="evenodd" d="M21.6946 0.113437C21.5008 0.190642 16.7669 2.35695 11.1748 4.92744C3.90635 8.26856 0.911699 9.69304 0.671708 9.92373C-0.0496753 10.6167 0.000758977 17.0389 0.000758977 27.2353C0.000758977 36.8651 0.0177717 37.3198 0.464937 39.6212C1.7864 46.4233 5.7838 52.6367 11.2252 56.3466C14.2486 58.408 17.2469 59.5464 20.5873 59.9013C24.734 60.3418 29.1877 59.2954 32.8687 57.0157C34.727 55.8648 35.1935 55.3947 35.336 54.5298C35.5249 53.3839 34.4831 52.1657 33.3115 52.1626C32.9271 52.1615 32.4268 52.399 31.5097 53.0176C29.6525 54.2704 27.714 55.1004 25.52 55.5822C24.0054 55.9148 21.105 55.9176 19.616 55.5882C14.3956 54.4329 9.74346 50.7489 6.79742 45.4374C5.77323 43.5908 4.87739 41.1853 4.47764 39.2084C4.03853 37.0369 4.02746 36.7652 4.02746 28.1742V12.7433L13.2172 8.51927L22.4069 4.29514L31.6897 8.51844L40.9724 12.7417L41.0018 27.3992C41.0202 32.0977 40.9908 35.3907 40.9227 36.2667C40.6686 39.5282 39.7777 42.521 38.1858 45.4606C37.7283 46.3054 37.6585 46.5097 37.6563 47.012C37.6496 48.5122 39.1368 49.4939 40.4732 48.8715C41.0074 48.6227 41.3041 48.2455 41.9669 46.972C43.4703 44.0834 44.463 40.8437 44.8677 37.5053C44.9669 36.6872 44.9991 34.1695 44.9991 27.2353C44.9991 16.9551 45.0554 10.5556 44.2699 9.8841C44.0263 9.67581 40.187 7.87231 33.4727 4.81205C22.4591 -0.207772 22.4798 -0.199515 21.6946 0.113437ZM21.0197 15.9262C19.4307 16.3213 17.799 17.6655 17.0794 19.1722C16.5635 20.2526 16.4142 21.0976 16.4121 22.9485L16.4104 24.5056L15.7971 24.6805C14.12 25.1586 12.8822 26.3218 12.2591 28.0056C12.0343 28.6129 12.033 28.6511 12.0321 34.5514C12.0313 40.3709 12.0355 40.4944 12.2416 40.8992C12.3573 41.1263 12.6443 41.4514 12.8794 41.6217L13.307 41.9314H22.4504H31.5938L32.0214 41.6217C32.2565 41.4514 32.5435 41.1263 32.6592 40.8992C32.8654 40.4944 32.8695 40.3709 32.8687 34.5514C32.8678 28.6511 32.8665 28.6129 32.6417 28.0056C32.0174 26.3187 30.6354 25.0373 29.019 24.6466L28.4905 24.5189L28.4887 22.9551C28.4857 20.2479 28.0643 19.0216 26.6376 17.5679C25.7376 16.6511 24.9626 16.1938 23.8544 15.926C23.0606 15.7342 21.7919 15.7343 21.0197 15.9262ZM23.3353 20.0912C24.2704 20.5829 24.4638 21.088 24.4638 23.0395V24.5395H22.4504H20.4371L20.4393 23.017C20.4421 21.0647 20.6285 20.5885 21.5947 20.0663C22.0175 19.8377 22.8766 19.85 23.3353 20.0912ZM28.3953 28.7744C28.8758 29.038 28.8931 29.2079 28.8931 33.6689V37.8543H22.4504H16.0077V33.6689C16.0077 29.238 16.0256 29.0544 16.4859 28.7796C16.7296 28.634 28.1305 28.629 28.3953 28.7744Z" fill="white"/>
</svg>
