<svg width="58" height="60" viewBox="0 0 58 60" fill="none" xmlns="http://www.w3.org/2000/svg">
<path fill-rule="evenodd" clip-rule="evenodd" d="M10.5974 0.0980051C10.1189 0.287892 9.6588 0.801994 9.52491 1.29629C9.44669 1.58499 9.431 2.23388 9.48291 3.03082L9.56596 4.30412H5.44955C0.803461 4.30412 0.766773 4.31033 0.23839 5.19542C-0.0252703 5.63708 -0.0318766 5.71362 0.0370173 7.52751C0.268826 13.6197 1.5482 18.9069 3.94427 23.6741C7.53737 30.8228 12.8705 35.199 18.8864 35.9349L19.8024 36.0469L20.8228 37.0067C21.384 37.5345 22.2592 38.2559 22.7675 38.6099L23.6919 39.2534V43.1704V47.0873L21.7159 47.0887C20.3671 47.0897 19.5358 47.1441 19.0964 47.2602C16.8518 47.8538 15.0174 49.6554 14.4292 51.844C14.3157 52.2664 14.2151 53.302 14.1719 54.4914L14.1012 56.445L13.6848 56.5226C13.1596 56.6205 12.5469 57.219 12.3886 57.7886C12.1684 58.5812 12.6202 59.5015 13.3857 59.8193C13.966 60.0602 44.034 60.0602 44.6143 59.8193C45.3798 59.5015 45.8316 58.5812 45.6114 57.7886C45.4531 57.219 44.8404 56.6205 44.3152 56.5226L43.8988 56.445L43.8281 54.4914C43.7849 53.302 43.6843 52.2664 43.5708 51.844C42.9826 49.6554 41.1482 47.8538 38.9036 47.2602C38.4642 47.1441 37.6329 47.0897 36.2841 47.0887L34.3081 47.0873V43.1704V39.2534L35.2325 38.6099C35.7408 38.2559 36.616 37.5345 37.1772 37.0067L38.1976 36.0469L39.1135 35.9349C45.1295 35.199 50.4626 30.8228 54.0557 23.6741C56.4518 18.9069 57.7312 13.6197 57.963 7.52751C58.0319 5.71362 58.0253 5.63708 57.7616 5.19542C57.2335 4.3108 57.1948 4.30412 52.5656 4.30412H48.4641L48.4937 2.73169C48.5262 1.00935 48.4691 0.829774 47.7111 0.267497C47.3855 0.0259183 47.3781 0.0258011 27.9586 0.00341314C15.2475 -0.0112386 10.7904 0.0214642 10.5974 0.0980051ZM44.8834 5.38835C44.4348 16.2232 41.1963 26.6821 36.4602 32.5923C31.6204 38.632 28.0424 39.2337 22.9817 34.1973C17.4965 28.7384 13.6141 17.4004 13.1166 5.38835L13.0377 3.48362H30.1802H44.9623L44.8834 5.38835ZM9.79977 8.81687C10.3684 14.9326 11.7113 20.7922 13.6683 25.6957C14.2937 27.2625 15.5416 29.8789 16.1983 30.9997C16.4343 31.4027 16.5845 31.7323 16.5321 31.7323C16.4798 31.7323 15.9526 31.4903 15.3607 31.1945C9.20934 28.1205 4.4073 19.219 3.69972 9.57876C3.65949 9.03079 3.59992 8.41014 3.56724 8.1995L3.50778 7.81668L6.61025 7.84786L9.71259 7.87916L9.79977 8.81687ZM54.4324 8.2015C54.4 8.41096 54.3405 9.03079 54.3003 9.57876C53.6762 18.0809 49.884 26.0558 44.5858 30.0076C43.8239 30.5758 41.7332 31.7324 41.4679 31.7323C41.4155 31.7323 41.5657 31.4027 41.8017 30.9997C42.4584 29.8789 43.7063 27.2625 44.3317 25.6957C46.2634 20.8552 47.7243 14.5093 48.1768 8.99269C48.2217 8.44471 48.2814 7.95675 48.3095 7.90846C48.3374 7.86017 49.7398 7.82055 51.4259 7.82055H54.4915L54.4324 8.2015ZM28.2927 40.9883C28.5847 41.0517 29.4341 41.1037 30.1802 41.1037C30.9264 41.1037 29.4153 41.0517 29.7073 40.9883C29.9993 40.9249 30.3575 40.8461 30.5036 40.8132L30.769 40.7533V43.9203V47.0873H30.1802H27.231V43.9203V40.7533L27.4964 40.8132C27.6425 40.8461 28.0007 40.9249 28.2927 40.9883ZM38.614 50.8574C39.1504 51.153 39.7453 51.7801 39.9858 52.3034C40.165 52.6932 40.2018 53.0834 40.2039 54.6183L40.2065 56.4645H30.1802H17.7935L17.7961 54.6183C17.7991 52.4101 17.9088 52.0644 18.8769 51.2092C19.5698 50.597 16.957 50.6095 27.9967 50.6369C37.3189 50.66 38.2925 50.6803 38.614 50.8574Z" fill="white"/>
</svg>
