<svg width="11" height="11" viewBox="0 0 11 11" fill="none" xmlns="http://www.w3.org/2000/svg">
<path fill-rule="evenodd" clip-rule="evenodd" d="M0.671621 0.0290359C0.330473 0.111992 0.0729832 0.393513 0.0117868 0.750401C-0.0204558 0.938476 0.0169671 1.71158 0.0813663 2.18808C0.346207 4.14703 1.10124 5.85891 2.38228 7.40486C2.61179 7.68185 3.31799 8.3881 3.59495 8.61762C5.14079 9.89876 6.85253 10.6539 8.81133 10.9187C9.29134 10.9836 10.0607 11.0206 10.2513 10.9879C10.6157 10.9254 10.9006 10.6551 10.9758 10.3005C10.9919 10.2248 11 9.82434 11 9.10657C11 7.95563 10.9955 7.89688 10.8911 7.69228C10.832 7.57639 10.6903 7.4249 10.5814 7.36105C10.4175 7.26496 10.3127 7.24151 9.95749 7.22122C9.28949 7.18308 8.86171 7.11464 8.32447 6.95995C8.05049 6.88107 8.00692 6.87424 7.82782 6.88206C7.65468 6.88965 7.6147 6.89943 7.48928 6.96504C7.41105 7.00595 7.05692 7.2595 6.70234 7.52847C6.34774 7.79746 6.05065 8.01752 6.04212 8.01752C6.01375 8.01752 5.59734 7.77489 5.3468 7.61237C4.41716 7.00935 3.70939 6.25021 3.13207 5.23692C3.00143 5.00761 2.97879 4.95411 2.99885 4.92199C3.01213 4.90071 3.23802 4.59939 3.50082 4.25237C3.76362 3.90537 4.0008 3.5824 4.02788 3.53468C4.05497 3.48696 4.09288 3.38635 4.11216 3.31109C4.15642 3.13839 4.1435 3.02516 4.03607 2.64334C3.88702 2.11364 3.81349 1.64714 3.78873 1.07408C3.77439 0.742276 3.74103 0.581093 3.65703 0.437753C3.53706 0.233018 3.29937 0.06457 3.06879 0.0208241C2.89868 -0.0114425 0.808609 -0.00428404 0.671621 0.0290359Z"/>
</svg>
