<svg width="305" height="220" viewBox="0 0 305 220" fill="none" xmlns="http://www.w3.org/2000/svg">
<path fill-rule="evenodd" clip-rule="evenodd" d="M304.945 0.110298C304.648 -0.181922 297.199 0.198954 290.182 0.198954L277.426 0.198953V128.522L251.48 103.111V0.110016L238.422 0.472115L225.365 0.110298L225.125 44.0321C224.97 72.0586 224.431 87.127 223.589 86.939C222.875 86.7789 217.125 84.7067 210.809 82.3359L199.329 78.0237L198.919 39.429L199.248 0.110012L172.347 0.110012V73.8894H146.441L146.096 37.3618L146.491 0.110012L133.369 0.110298L119.159 0.198954L118.981 16.0805C117.731 39.152 112.163 55.9687 100.003 73.4091C87.6229 91.1635 63.862 108.834 42.6815 116.037C-1.36746 131.016 -49.0786 121.322 -83.6639 90.3656L-91 83.7982L-91 218.729H-63.9648L-64.0323 189.825C-64.0686 173.928 -64.0219 154.852 -63.9272 147.436L-63.7572 133.952L-53.191 138.125C-47.3792 140.42 -41.5415 142.575 -40.2182 142.914C-37.9428 143.496 -37.8118 145.579 -37.8118 181.129V218.729H-11.8663V147.58L14.0792 147.58L14.0792 218.729H41.3219L41.3219 142.837L52.0244 138.978C57.9101 136.857 63.7479 134.717 64.9972 134.227C67.1325 133.386 67.2674 135.872 67.2674 176.031V218.729H105.537C126.585 218.729 144.245 218.741 144.779 218.756C145.314 218.77 146.044 215.065 146.401 210.523C147.305 199.017 151.562 195.076 162.393 195.719C163.696 195.796 166.469 197.531 168.555 199.574C171.977 202.925 172.346 204.102 172.346 211.644V220H199.923L199.327 209.918C197.855 185.025 181.005 169.282 157.428 170.773C151.848 171.127 146.053 172.415 142.398 174.116C135.403 177.372 126.551 185.565 124.315 190.854L122.735 194.589H94.6256L96.5559 189.231C101.051 176.754 111.63 163.651 122.958 156.531C133.664 149.803 142.993 147.219 156.779 147.166C181.907 147.067 202.337 156.847 214.228 174.669C221.347 185.339 223.274 191.447 224.116 206.024L224.886 219.365H250.832L250.712 205.988C250.507 182.852 242.857 165.619 225 148.065C208.276 131.625 189.564 123.813 163.914 122.566C152.068 121.99 147.662 122.337 137.969 124.611C124.707 127.723 111.299 133.798 101.295 141.23C97.5341 144.024 94.178 146.309 93.8355 146.309C93.4931 146.309 93.2128 139.722 93.2128 131.67V117.031L99.24 113.288C119.343 100.802 154.435 95.0068 180.613 99.8513C218.384 106.84 248.725 128.093 265.003 158.961C273.081 174.279 276.196 185.863 277.061 203.801V220H304.945L304.482 109.995C304.227 50.1903 305.242 0.401249 304.945 0.110298ZM67.6228 0.198944L66.7057 12.443C65.1528 33.1525 60.2063 44.3103 46.9599 56.9813C25.0113 77.9754 -13.4879 80.1912 -38.8302 61.9198C-56.5327 49.1574 -65.013 31.5555 -65.0442 7.50446L-65.0545 0.198938L-91 0.198937L-90.9779 11.316C-90.9079 45.8845 -72.8148 74.1206 -41.055 89.2284C-25.7848 96.492 -16.4041 98.5592 1.10645 98.5236C12.4485 98.5007 18.451 97.8248 26.1425 95.7068C45.18 90.4647 61.1416 80.7299 72.3708 67.5164C87.0067 50.2907 93.2128 33.4448 93.2128 10.9362V0.198945L67.6228 0.198944ZM39.7872 0.812606C41.3219 0.464482 32.6652 0.259927 26.3008 0.464482L14.7278 0.834204L14.0792 10.1522C13.4837 18.7054 13.0829 19.7752 9.19363 23.1751C4.5001 27.2789 0.243767 27.8227 -5.28651 25.0212C-10.0047 22.6326 -10.8881 20.5502 -11.782 9.72788L-12.5149 0.834203L-38.4215 0.834202L-38.0479 11.6337C-37.5886 24.9094 -33.9096 33.3292 -25.3424 40.7147C-18.0556 46.9975 -9.99819 49.7494 1.10647 49.7494C24.1292 49.7494 39.0193 35.592 40.8834 11.931C41.5528 3.41591 41.3544 1.40213 39.7872 0.812606Z" fill="#C4A577"/>
</svg>
